<?xml version="1.0" encoding="UTF-8" standalone="no"?>
<!-- Created with Inkscape (http://www.inkscape.org/) -->

<svg
   width="768"
   height="576"
   viewBox="0 0 203.2 152.4"
   version="1.1"
   id="svg5"
   inkscape:version="1.1.1 (1:1.1+202109281949+c3084ef5ed)"
   sodipodi:docname="0.svg"
   xmlns:inkscape="http://www.inkscape.org/namespaces/inkscape"
   xmlns:sodipodi="http://sodipodi.sourceforge.net/DTD/sodipodi-0.dtd"
   xmlns="http://www.w3.org/2000/svg"
   xmlns:svg="http://www.w3.org/2000/svg">
  <sodipodi:namedview
     id="namedview7"
     pagecolor="#ffffff"
     bordercolor="#666666"
     borderopacity="1.0"
     inkscape:pageshadow="2"
     inkscape:pageopacity="0.0"
     inkscape:pagecheckerboard="0"
     inkscape:document-units="px"
     showgrid="false"
     inkscape:zoom="0.7962317"
     inkscape:cx="403.77694"
     inkscape:cy="281.9531"
     inkscape:window-width="1294"
     inkscape:window-height="704"
     inkscape:window-x="72"
     inkscape:window-y="27"
     inkscape:window-maximized="1"
     inkscape:current-layer="layer1"
     fit-margin-top="0"
     fit-margin-left="0"
     fit-margin-right="0"
     fit-margin-bottom="0" />
  <defs
     id="defs2">
    <rect
       x="43.419856"
       y="155.89454"
       width="268.06283"
       height="128.48255"
       id="rect20481" />
  </defs>
  <g
     inkscape:label="Calque 1"
     inkscape:groupmode="layer"
     id="layer1"
     transform="translate(0,-22.263724)">
    <rect
       style="fill:#0000ff;fill-rule:evenodd;stroke-width:0.135038"
       id="rect31"
       width="203.40707"
       height="51.503723"
       x="0.8516947"
       y="143.76096" />
    <path
       style="fill:#784421;stroke-width:0.169597"
       d="M 0.91803646,169.5396 V 143.95984 H 102.55473 204.19142 v 25.57976 25.57977 H 102.55473 0.91803646 Z"
       id="path2725" />
    <rect
       style="fill:#784421;stroke-width:0.135038"
       id="rect2786"
       width="11.676277"
       height="123.77999"
       x="147.99934"
       y="22.781191" />
    <rect
       style="fill:#784421;stroke-width:0.0990587"
       id="rect2786-0"
       width="12.573098"
       height="61.856255"
       x="-35.354282"
       y="97.819374"
       transform="rotate(-90)" />
    <rect
       style="fill:#784421;stroke-width:0.071724"
       id="rect2786-7"
       width="9.5251064"
       height="42.805702"
       x="99.750931"
       y="140.93214"
       transform="matrix(0.52205086,-0.85291436,0.52205086,0.85291436,0,0)" />
    <path
       style="fill:#784421;stroke-width:0.169625"
       d="M 0.98437646,169.5396 V 143.95984 H 74.51586 148.04734 V 107.70331 71.446782 L 136.99741,53.400536 125.94749,35.354286 H 111.91176 97.876042 v -6.286544 -6.286556 h 30.925698 30.92569 v 60.58933 60.589324 h 22.23199 22.232 v 25.57976 25.57977 H 102.5879 0.98437646 Z M 148.04734,45.434445 V 35.354286 h -6.20453 -6.20449 l 6.17079,10.080159 c 3.39394,5.544093 6.18596,10.080157 6.20452,10.080157 0.0185,0 0.0337,-4.536064 0.0337,-10.080157 z"
       id="path3010" />
    <rect
       style="fill:#784421;stroke-width:0.135038"
       id="rect3388"
       width="0.53073996"
       height="19.509981"
       x="103.94791"
       y="35.137508" />
    <ellipse
       style="fill:#280b0b;stroke-width:0.192773"
       id="path3492"
       cx="104.21786"
       cy="58.662136"
       rx="4.9884644"
       ry="7.9166322" />
    <ellipse
       style="fill:#280b0b;stroke-width:0.192773"
       id="path3516"
       cx="104.11607"
       cy="78.093872"
       rx="2.4433298"
       ry="15.257511" />
    <path
       style="fill:#280b0b"
       id="path3622"
       sodipodi:type="arc"
       sodipodi:cx="38.799667"
       sodipodi:cy="131.98441"
       sodipodi:rx="8.2278891"
       sodipodi:ry="1.9946395"
       sodipodi:start="0"
       sodipodi:end="6.2076649"
       sodipodi:arc-type="slice"
       transform="matrix(0.57744598,-0.81642889,0.57744598,0.81642889,0,0)"
       d="m 47.027556,131.98441 a 8.2278891,1.9946395 0 0 1 -8.072554,1.99428 8.2278891,1.9946395 0 0 1 -8.377359,-1.91898 8.2278891,1.9946395 0 0 1 7.756243,-2.06675 8.2278891,1.9946395 0 0 1 8.670218,1.84095 l -8.204437,0.1505 z" />
    <path
       style="fill:#280b0b"
       id="path3622-4"
       sodipodi:type="arc"
       sodipodi:cx="41.898304"
       sodipodi:cy="-125.40557"
       sodipodi:rx="9.2180948"
       sodipodi:ry="1.7214344"
       sodipodi:start="0"
       sodipodi:end="6.2076649"
       sodipodi:arc-type="slice"
       transform="matrix(-0.24930169,0.96842587,-0.88917279,-0.45757157,0,0)"
       d="m 51.116399,-125.40557 a 9.2180948,1.7214344 0 0 1 -9.044067,1.72113 9.2180948,1.7214344 0 0 1 -9.385552,-1.65614 9.2180948,1.7214344 0 0 1 8.689687,-1.78366 9.2180948,1.7214344 0 0 1 9.713657,1.58879 l -9.19182,0.12988 z" />
    <path
       style="fill:#280b0b"
       id="path3622-5"
       sodipodi:type="arc"
       sodipodi:cx="146.31807"
       sodipodi:cy="-73.960701"
       sodipodi:rx="9.0660744"
       sodipodi:ry="1.7682449"
       sodipodi:start="0"
       sodipodi:end="6.2076649"
       sodipodi:arc-type="slice"
       transform="matrix(0.31321585,0.94968196,-0.83488004,0.55043194,0,0)"
       d="m 155.38414,-73.960701 a 9.0660744,1.7682449 0 0 1 -8.89491,1.76793 9.0660744,1.7682449 0 0 1 -9.23077,-1.701177 9.0660744,1.7682449 0 0 1 8.54638,-1.832162 9.0660744,1.7682449 0 0 1 9.55346,1.631997 l -9.04023,0.133412 z" />
    <path
       style="fill:#280b0b"
       id="path3622-2"
       sodipodi:type="arc"
       sodipodi:cx="141.32849"
       sodipodi:cy="-48.143723"
       sodipodi:rx="8.2278891"
       sodipodi:ry="1.9946395"
       sodipodi:start="0"
       sodipodi:end="6.2076649"
       sodipodi:arc-type="slice"
       transform="matrix(0.57744598,0.81642889,-0.57744598,0.81642889,0,0)"
       d="m 149.55638,-48.143723 a 8.2278891,1.9946395 0 0 1 -8.07255,1.994284 8.2278891,1.9946395 0 0 1 -8.37736,-1.918983 8.2278891,1.9946395 0 0 1 7.75624,-2.066741 8.2278891,1.9946395 0 0 1 8.67022,1.840948 l -8.20444,0.150492 z" />
    <path
       style="fill:#ff0000;stroke-width:1.25592"
       d="m 372.95875,307.69938 c 0.69892,-13.29276 5.50523,-33.00561 10.92278,-44.79925 l 3.8484,-8.37767 -1.39586,-14.29531 c -0.76773,-7.86242 -1.40124,-21.04733 -1.4078,-29.2998 l -0.0119,-15.00448 -4.81943,7.5355 c -9.06191,14.1689 -21.34711,26.78432 -24.30374,24.95702 -4.5476,-2.81057 12.2818,-32.79563 24.97229,-44.49331 4.69279,-4.32566 5.78305,-6.22576 6.62371,-11.5437 0.96308,-6.09245 0.83103,-6.54101 -3.07573,-10.44777 -5.27552,-5.27552 -8.16465,-13.93572 -8.16465,-24.47365 0,-28.3352 21.88366,-39.395379 32.41839,-16.38451 6.23358,13.61595 3.20126,34.22438 -6.19971,42.13477 -3.30709,2.78274 -3.52671,3.49576 -2.79559,9.0764 0.66036,5.04061 1.8823,7.215 7.28534,12.96397 3.57054,3.79914 8.90873,10.48069 11.86265,14.84789 5.59039,8.26509 13.39094,23.80241 12.43166,24.76169 -0.30376,0.30377 -4.08748,-4.29575 -8.40826,-10.22115 -4.32078,-5.9254 -8.12832,-10.50111 -8.46119,-10.16823 -0.33287,0.33287 2.81936,5.3929 7.00498,11.24451 4.18561,5.85161 7.6102,10.99864 7.6102,11.43785 0,3.89786 -13.57782,-9.80675 -21.35057,-21.54994 l -5.65162,-8.53856 -0.19886,19.23232 c -0.10936,10.57778 -0.82904,23.96792 -1.59927,29.75587 l -1.40042,10.52353 3.7595,6.0963 c 5.11289,8.29096 13.73683,34.71161 14.53999,44.54535 l 0.65502,8.01985 -4.46095,-11.9312 c -2.45352,-6.56216 -4.7403,-12.71854 -5.08173,-13.68085 -0.34143,-0.96231 -0.88582,-1.48462 -1.20975,-1.16069 -0.32393,0.32394 1.38993,6.46511 3.80857,13.64708 2.41864,7.18195 4.19665,13.63847 3.95114,14.3478 -1.40656,4.06374 -12.09137,-21.04631 -16.37141,-38.47394 -2.07883,-8.4647 -3.14043,-10.84447 -4.78579,-10.7283 -1.57996,0.11153 -2.46069,2.13801 -3.48458,8.0176 -2.65398,15.24032 -11.57826,42.04267 -13.39415,40.22677 -0.62761,-0.6276 3.74695,-22.13585 5.54572,-27.26646 0.36326,-1.03613 0.17791,-1.44425 -0.41189,-0.90694 -0.58981,0.53732 -2.94379,7.88442 -5.23107,16.3269 l -4.1587,15.34998 z m 7.36209,-113.70373 c 3.33185,-4.85216 5.87508,-9.32971 5.65162,-9.95011 -0.22347,-0.62039 -3.37651,3.35241 -7.00677,8.82844 -3.63026,5.47604 -6.17349,9.95358 -5.65162,9.9501 0.52187,-0.004 3.67491,-3.97627 7.00677,-8.82843 z"
       id="path418"
       transform="matrix(0.26458333,0,0,0.26458333,0,22.263724)" />
    <text
       xml:space="preserve"
       transform="matrix(0.41058681,0,0,0.74320028,-8.6541141,-49.636492)"
       id="text20479"
       style="font-style:normal;font-weight:normal;font-size:40px;line-height:1.25;font-family:sans-serif;white-space:pre;shape-inside:url(#rect20481);fill:#000000;fill-opacity:1;stroke:none"><tspan
         x="43.419922"
         y="191.28516"
         id="tspan33338"><tspan
           style="fill:#ff0000"
           id="tspan33336">You failed</tspan></tspan></text>
  </g>
</svg>
