<svg xmlns="http://www.w3.org/2000/svg" width="32" height="32" viewBox="0 0 8.467 8.467"><g transform="translate(0 -288.533)"><path d="m 4.1010427,290.12082 c -1.5327492,0 -2.7781251,1.24539 -2.7781251,2.77812 0,1.53276 1.2453759,2.77813 2.7781251,2.77813 1.5327493,0 2.7781252,-1.24537 2.7781252,-2.77813 0,-1.53273 -1.2453758,-2.77812 -2.7781252,-2.77812 z m 0,0.26458 c 1.3897576,0 2.5135417,1.12379 2.5135417,2.51354 0,1.38978 -1.1237841,2.51355 -2.5135417,2.51355 -1.3897576,0 -2.5135417,-1.12377 -2.5135417,-2.51355 0,-1.38975 1.1237841,-2.51354 2.5135417,-2.51354 z" style="line-height:normal;text-indent:0;text-align:start;text-decoration-line:none;text-decoration-style:solid;text-decoration-color:#000;text-transform:none;white-space:normal;isolation:auto;mix-blend-mode:normal;solid-color:#000;solid-opacity:1" color="#000" enable-background="accumulate" font-family="sans-serif" font-weight="400" overflow="visible"/><path d="M1.945102 290.25364a.13230489.1323049 0 00-.080615.0325c-.7626893.6531-1.20208461 1.60732-1.20302738 2.61173-.00094191 1.00441.43693508 1.95927 1.19837658 2.61379a.13230489.1323049 0 10.1720825-.2005c-.7029965-.60428-1.10674665-1.48537-1.10587575-2.41276.0008705-.92742.40637835-1.80827 1.11052655-2.41123a.13230489.1323049 0 00-.091467-.23357zM6.2569838 290.25158a.13230489.1323049 0 01.080615.0325c.7626892.6531 1.2020846 1.60732 1.2030274 2.61173.0009525 1.00441-.436935 1.95926-1.1983765 2.61379A.13230489.1323049 0 116.170167 295.3091c.7029966-.60428 1.1067468-1.48537 1.1058758-2.41276-.0008731-.92742-.4063783-1.80827-1.1105267-2.41123a.13230489.1323049 0 01.091468-.23357zM4.1010427 290.91457c-.2175804 0-.3968749.17931-.3968749.39687l0 2.11667c0 .21759.1792945.39688.3968749.39688.2175804 0 .396875-.17929.396875-.39688l0-2.11667c0-.21756-.1792946-.39687-.396875-.39687zm0 .26458c.075578 0 .1322917.0567.1322917.13229l0 2.11667c0 .0756-.056714.13229-.1322917.13229-.075578 0-.1322916-.0567-.1322916-.13229l0-2.11667c0-.0756.056714-.13229.1322916-.13229zM4.1010427 294.08957c-.217621 0-.3968749.17925-.3968749.39687 0 .21762.1792539.39688.3968749.39688.2176211 0 .396875-.17926.396875-.39688 0-.21762-.1792539-.39687-.396875-.39687zm0 .26458c.07463 0 .1322917.0577.1322917.13229 0 .0746-.057662.1323-.1322917.1323-.07463 0-.1322916-.0577-.1322916-.1323 0-.0746.057662-.13229.1322916-.13229z" style="line-height:normal;text-indent:0;text-align:start;text-decoration-line:none;text-decoration-style:solid;text-decoration-color:#000;text-transform:none;white-space:normal;isolation:auto;mix-blend-mode:normal;solid-color:#000;solid-opacity:1" color="#000" enable-background="accumulate" font-family="sans-serif" font-weight="400" overflow="visible"/></g></svg>