<?xml version="1.0" standalone="no"?>
<svg xmlns="http://www.w3.org/2000/svg" viewBox="0 0 114.2 29" width="114.2" height="29"><path fill="#000000" fill-rule="nonzero" d="M7.63 16.66Q5.42 16.66 3.68 15.59Q1.94 14.52 0.97 12.60Q0 10.68 0 8.21L0 8.21Q0 5.57 1.12 3.72Q2.23 1.87 4.07 0.94Q5.90 0 8.02 0L8.02 0Q9.48 0 10.73 0.30Q11.98 0.60 13.34 1.25L13.34 1.25Q13.08 2.50 13.08 4.97L13.08 4.97Q12.55 5.18 11.81 5.18L11.81 5.18Q11.71 2.78 10.82 1.88Q9.94 0.98 8.21 0.98L8.21 0.98Q6.26 0.98 4.99 1.90Q3.72 2.81 3.12 4.30Q2.52 5.78 2.52 7.56L2.52 7.56Q2.52 9.72 3.25 11.46Q3.98 13.20 5.38 14.20Q6.77 15.19 8.64 15.19L8.64 15.19Q9.77 15.19 10.97 14.81Q12.17 14.42 13.20 13.78L13.20 13.78Q13.34 13.90 13.48 14.12Q13.61 14.35 13.63 14.52L13.63 14.52Q12.17 15.65 10.79 16.15Q9.41 16.66 7.63 16.66L7.63 16.66ZM23.14 16.66Q21.07 16.66 19.49 15.89Q17.90 15.12 17.03 13.73Q16.15 12.34 16.15 10.49L16.15 10.49Q16.15 8.66 17.03 7.25Q17.90 5.83 19.50 5.05Q21.10 4.27 23.18 4.27L23.18 4.27Q25.25 4.27 26.83 5.04Q28.42 5.81 29.29 7.21Q30.17 8.62 30.17 10.44L30.17 10.44Q30.17 12.29 29.29 13.69Q28.42 15.10 26.82 15.88Q25.22 16.66 23.14 16.66L23.14 16.66ZM23.47 15.55Q25.42 15.55 26.56 14.26Q27.70 12.96 27.70 10.80L27.70 10.80Q27.70 9.24 27.07 8.00Q26.45 6.77 25.33 6.07Q24.22 5.38 22.82 5.38L22.82 5.38Q20.88 5.38 19.75 6.68Q18.62 7.99 18.62 10.13L18.62 10.13Q18.62 11.74 19.25 12.97Q19.87 14.21 20.98 14.88Q22.08 15.55 23.47 15.55L23.47 15.55ZM39.79 16.61Q37.73 16.61 36.14 15.82Q34.56 15.02 33.68 13.60Q32.81 12.17 32.81 10.32L32.81 10.32Q32.81 8.40 33.84 7.04Q34.87 5.69 36.55 4.99Q38.23 4.30 40.15 4.30L40.15 4.30Q41.62 4.30 42.95 4.52Q44.28 4.75 45.19 5.16L45.19 5.16Q44.98 6.07 44.98 7.92L44.98 7.92Q44.54 8.11 43.75 8.11L43.75 8.11Q43.68 6.60 42.77 5.98Q41.86 5.35 40.30 5.35L40.30 5.35Q38.64 5.35 37.50 5.98Q36.36 6.60 35.81 7.64Q35.26 8.69 35.26 9.91L35.26 9.91Q35.26 12.36 36.54 13.90Q37.82 15.43 40.20 15.43L40.20 15.43Q40.94 15.43 41.35 15.41Q41.76 15.38 42.19 15.26L42.19 15.26Q42.58 15.17 42.74 14.89Q42.91 14.62 42.91 13.97L42.91 13.97L42.91 13.22Q42.91 12.53 42.79 12.23Q42.67 11.93 42.31 11.82Q41.95 11.71 41.14 11.69L41.14 11.69Q40.99 11.26 40.99 10.58L40.99 10.58Q41.54 10.63 43.61 10.63L43.61 10.63Q45.65 10.63 46.13 10.58L46.13 10.58Q46.13 11.26 46.01 11.69L46.01 11.69Q45.55 11.71 45.36 11.82Q45.17 11.93 45.10 12.20Q45.02 12.48 45.02 13.08L45.02 13.08L45.02 13.68Q45.02 14.23 45.08 14.56Q45.14 14.88 45.31 15.24L45.31 15.24Q44.35 15.86 42.92 16.24Q41.50 16.61 39.79 16.61L39.79 16.61ZM49.99 16.49Q49.99 15.74 50.11 15.41L50.11 15.41Q50.71 15.36 51.01 15.22Q51.31 15.07 51.43 14.71Q51.55 14.35 51.55 13.63L51.55 13.63L51.55 7.22Q51.55 6.53 51.43 6.17Q51.31 5.81 51.01 5.66Q50.71 5.52 50.11 5.47L50.11 5.47Q49.99 5.11 49.99 4.39L49.99 4.39Q51.53 4.44 52.68 4.44L52.68 4.44Q53.64 4.44 55.32 4.39L55.32 4.39Q55.32 5.14 55.22 5.47L55.22 5.47Q54.36 5.52 54.06 5.86Q53.76 6.19 53.76 7.22L53.76 7.22L53.76 13.63Q53.76 14.66 54.06 15.01Q54.36 15.36 55.22 15.41L55.22 15.41Q55.32 15.77 55.32 16.49L55.32 16.49Q53.69 16.44 52.68 16.44L52.68 16.44Q51.48 16.44 49.99 16.49L49.99 16.49ZM64.37 11.16Q65.64 11.16 66.44 10.54Q67.25 9.91 67.25 8.47L67.25 8.47Q67.25 7.10 66.40 6.30Q65.54 5.50 63.79 5.50L63.79 5.50Q63.34 5.50 62.74 5.64L62.74 5.64L62.74 13.37Q62.74 14.50 63.17 14.93Q63.60 15.36 64.66 15.41L64.66 15.41Q64.78 15.77 64.78 16.49L64.78 16.49Q63.43 16.44 61.99 16.44L61.99 16.44Q60.17 16.44 58.97 16.49L58.97 16.49Q58.97 15.74 59.09 15.41L59.09 15.41Q59.93 15.36 60.23 15.01Q60.53 14.66 60.53 13.63L60.53 13.63L60.53 7.22Q60.53 6.53 60.41 6.17Q60.29 5.81 59.99 5.66Q59.69 5.52 59.09 5.47L59.09 5.47Q58.97 5.11 58.97 4.39L58.97 4.39Q61.22 4.44 61.92 4.44L61.92 4.44L64.80 4.39Q67.27 4.39 68.42 5.42Q69.58 6.46 69.58 8.06L69.58 8.06Q69.58 9.22 69.02 10.18Q68.47 11.14 67.38 11.71Q66.29 12.29 64.75 12.29L64.75 12.29Q63.82 12.29 63.29 12.12L63.29 12.12Q63.24 11.78 63.24 11.62L63.24 11.62Q63.24 11.30 63.31 11.09L63.31 11.09Q63.67 11.16 64.37 11.16L64.37 11.16Z" transform="translate(0, 6.172)"></path><line x1="78.576" y1="2%" x2="78.576" y2="98%" stroke="#000000" stroke-linecap="round"></line><g fill="#00d0b1" color="#00d0b1" transform="translate(87.576 0) scale(0.6041667)"><svg width="44.0" height="48.0" x="0.0" y="0.0" viewBox="0 0 44 48"><path fill="currentColor" fill-rule="evenodd" d="M26.592 7.876c-1.442 3.958-2.352 9.744-2.352 16.195 0 6.393.894 12.136 2.311 16.09-.691.939-1.454 1.46-2.256 1.46-3.13-.003-5.665-7.895-5.665-17.634 0-9.734 2.535-17.63 5.661-17.63.82.001 1.599.546 2.3 1.52M37.084 24.07c.003 6.693-1.663 12.123-3.716 12.123s-3.717-5.43-3.717-12.121c0-6.696 1.664-12.124 3.717-12.127 2.056.003 3.719 5.43 3.716 12.125M21.51 0c2.12.002 4.037 2.67 5.43 6.98 1.172-2.82 2.642-4.504 4.238-4.504 3.83-.005 6.936 9.668 6.934 21.594.002 11.926-3.106 21.597-6.937 21.596-1.607 0-3.089-1.711-4.265-4.573-1.389 4.256-3.296 6.882-5.397 6.884-4.257-.002-7.708-10.74-7.708-23.99C13.805 10.745 17.257 0 21.51 0zm-6.145 2.36c-5.194 4.504-8.651 12.467-8.651 21.535 0 9.067 3.455 17.03 8.655 21.531C6.292 41.661-.003 33.435 0 23.894 0 14.356 6.292 6.129 15.365 2.361zm26.647 14.91c1.098 0 1.986 2.9 1.988 6.483-.002 3.577-.891 6.48-1.99 6.48-1.096 0-1.985-2.9-1.987-6.482-.002-3.58.891-6.482 1.99-6.482z"></path></svg></g></svg>